
  <svg width="21" height="21" viewBox="0 0 24 24" fill="none" xmlns="http://www.w3.org/2000/svg">
  <path d="M12 0.297C5.371 0.297 0 5.668 0 12.297C0 17.492 3.438 21.821 8.205 23.385C8.805 23.484 9.025 23.123 9.025 22.801C9.025 22.512 9.014 21.643 9.008 20.557C5.672 21.257 4.968 19.111 4.968 19.111C4.436 17.792 3.664 17.446 3.664 17.446C2.607 16.748 3.751 16.764 3.751 16.764C4.931 16.853 5.555 17.983 5.555 17.983C6.593 19.78 8.366 19.263 9.051 18.959C9.15 18.204 9.447 17.706 9.777 17.422C7.135 17.134 4.344 16.093 4.344 11.467C4.344 10.14 4.833 9.073 5.613 8.264C5.493 7.977 5.093 6.726 5.732 5.104C5.732 5.104 6.731 4.793 9.005 6.329C9.967 6.057 10.996 5.922 12.025 5.917C13.055 5.922 14.083 6.057 15.046 6.329C17.318 4.793 18.316 5.104 18.316 5.104C18.957 6.726 18.556 7.977 18.436 8.264C19.217 9.073 19.705 10.14 19.705 11.467C19.705 16.107 16.907 17.128 14.255 17.411C14.692 17.808 15.072 18.564 15.072 19.688C15.072 21.282 15.06 22.42 15.06 22.801C15.06 23.123 15.278 23.488 15.885 23.385C20.635 21.821 24 17.492 24 12.297C24 5.668 18.627 0.297 12 0.297Z" fill="white"/>
</svg>

 
 


