<svg width="21" height="21" viewBox="0 0 21 21" fill="none" xmlns="http://www.w3.org/2000/svg">
  <path d="M4.90283 21H0.40625V6.95312H4.90283V21ZM2.65454 5.0625C1.19412 5.0625 0 3.85547 0 2.42188C0 0.988281 1.19412 0 2.65454 0C4.11497 0 5.30908 1.20703 5.30908 2.42188C5.30908 3.63672 4.11497 5.0625 2.65454 5.0625ZM21 21H16.5184V13.2422C16.5184 11.3672 16.4793 8.94531 14.0713 8.94531C11.6215 8.94531 11.3013 10.9531 11.3013 13.125V21H6.80469V6.95312H11.1246V8.4375H11.1823C11.8057 7.32422 13.1237 6.67969 14.4996 6.67969C19.0012 6.67969 21 9.26172 21 13.3984V21Z" fill="white"/>
</svg>
